<svg xmlns="http://www.w3.org/2000/svg" viewBox="0 0 512 512">
  <defs>
    <linearGradient id="ghostGrad" x1="0%" y1="0%" x2="0%" y2="100%">
      <stop offset="0%" style="stop-color:#8b95a8"/>
      <stop offset="100%" style="stop-color:#6b7fa8"/>
    </linearGradient>
  </defs>
  <!-- Background circle -->
  <circle cx="256" cy="256" r="240" fill="#12151c"/>
  <!-- Ghost body -->
  <path d="M256 80c-88 0-160 72-160 160v152c0 8 10 12 16 6l24-24c8-8 20-8 28 0l24 24c8 8 20 8 28 0l24-24c8-8 20-8 28 0l24 24c8 8 20 8 28 0l24-24c8-8 20-8 28 0l24 24c6 6 16 2 16-6V240c0-88-72-160-160-160z" fill="url(#ghostGrad)"/>
  <!-- Eyes -->
  <ellipse cx="200" cy="240" rx="24" ry="32" fill="#12151c"/>
  <ellipse cx="312" cy="240" rx="24" ry="32" fill="#12151c"/>
  <!-- Eye highlights -->
  <ellipse cx="208" cy="232" rx="8" ry="10" fill="#8b95a8" opacity="0.6"/>
  <ellipse cx="320" cy="232" rx="8" ry="10" fill="#8b95a8" opacity="0.6"/>
</svg>
